<svg width="24" height="24" viewBox="0 0 24 24" fill="none" xmlns="http://www.w3.org/2000/svg">
<path fill-rule="evenodd" clip-rule="evenodd" d="M9.91607 10.6983C9.91607 10.0925 10.4049 9.60137 11.0078 9.60137H12.5C13.103 9.60137 13.5917 10.0925 13.5917 10.6983V15.8062H14.9083C15.5112 15.8062 16 16.2973 16 16.9031C16 17.5089 15.5112 18 14.9083 18H10.0917C9.48879 18 9 17.5089 9 16.9031C9 16.2973 9.48879 15.8062 10.0917 15.8062H11.4083V11.7951H11.0078C10.4049 11.7951 9.91607 11.3041 9.91607 10.6983Z" fill="white"/>
<path d="M13.8457 7.43527C13.8457 8.22794 13.2061 8.87053 12.4172 8.87053C11.6282 8.87053 10.9886 8.22794 10.9886 7.43527C10.9886 6.64259 11.6282 6 12.4172 6C13.2061 6 13.8457 6.64259 13.8457 7.43527Z" fill="white"/>
</svg>
