<svg width="24" height="24" viewBox="0 0 24 24" fill="none" xmlns="http://www.w3.org/2000/svg">
<path d="M13.4538 15.5961C13.4186 15.5612 13.371 15.5416 13.3214 15.5416C13.2718 15.5416 13.2242 15.5612 13.189 15.5961L10.4655 18.3195C9.20459 19.5804 7.07647 19.714 5.68428 18.3195C4.28975 16.925 4.42334 14.7992 5.68428 13.5383L8.40772 10.8148C8.48037 10.7422 8.48037 10.6226 8.40772 10.55L7.4749 9.61717C7.43966 9.58227 7.39207 9.5627 7.34248 9.5627C7.29289 9.5627 7.2453 9.58227 7.21006 9.61717L4.48662 12.3406C2.50381 14.3234 2.50381 17.532 4.48662 19.5125C6.46943 21.4929 9.67803 21.4953 11.6585 19.5125L14.3819 16.789C14.4546 16.7164 14.4546 16.5969 14.3819 16.5242L13.4538 15.5961ZM19.5147 4.4867C17.5319 2.50388 14.3233 2.50388 12.3429 4.4867L9.61709 7.21014C9.5822 7.24538 9.56262 7.29296 9.56262 7.34256C9.56262 7.39215 9.5822 7.43974 9.61709 7.47498L10.5476 8.40545C10.6202 8.4781 10.7397 8.4781 10.8124 8.40545L13.5358 5.68201C14.7968 4.42107 16.9249 4.28748 18.3171 5.68201C19.7116 7.07654 19.578 9.20232 18.3171 10.4633L15.5937 13.1867C15.5588 13.2219 15.5392 13.2695 15.5392 13.3191C15.5392 13.3687 15.5588 13.4163 15.5937 13.4515L16.5265 14.3844C16.5991 14.457 16.7187 14.457 16.7913 14.3844L19.5147 11.6609C21.4952 9.6781 21.4952 6.46951 19.5147 4.4867ZM14.2999 8.72654C14.2647 8.69165 14.2171 8.67207 14.1675 8.67207C14.1179 8.67207 14.0703 8.69165 14.0351 8.72654L8.72646 14.0328C8.69157 14.068 8.672 14.1156 8.672 14.1652C8.672 14.2148 8.69157 14.2624 8.72646 14.2976L9.65459 15.2258C9.72725 15.2984 9.84678 15.2984 9.91943 15.2258L15.2257 9.91951C15.2983 9.84685 15.2983 9.72732 15.2257 9.65467L14.2999 8.72654Z" fill="black"/>
</svg>
