<svg width="24" height="24" viewBox="0 0 24 24" fill="none" xmlns="http://www.w3.org/2000/svg">
<path d="M16.1592 3.80469C16.1592 2.69878 16.1592 4.92166 16.1592 3.09112C16.1592 0.7668 16.1722 0.7668 14.1832 0.7668C12.1943 0.7668 7.82116 0.7668 6.24011 0.7668C4.26416 0.7668 4.26416 0.7668 4.26416 3.09112L4.26416 14.7309C4.26416 17.0916 4.26416 17.0916 6.24011 17.0916C7.81532 17.0916 11.4422 17.0916 13.4336 17.0916" stroke="black" stroke-width="1.5"/>
<path d="M7 1.34558L7 16.3355" stroke="black" stroke-width="1.5"/>
<path d="M19.0872 19L19.0872 16.3897C19.0872 16.0494 19.1277 15.7111 19.2086 15.3812L19.8789 12.6231C20.0247 12.0247 20.0388 11.4012 19.9214 10.7965L19.3281 7.74703C19.1712 6.94146 18.7854 6.20042 18.2205 5.61966L16.1217 3.46211C15.5234 2.84597 14.5524 2.84597 13.9531 3.46211C13.4134 4.01685 13.3527 4.89527 13.8103 5.52287L15.6449 8.0374C15.9081 8.39751 16.0498 8.83569 16.0498 9.28635L16.0498 11.7145L16.0498 10.1689C16.0498 9.2978 15.3633 8.59214 14.5159 8.59214L14.2091 8.59214C13.5055 8.59214 12.892 9.08444 12.7219 9.78592L12.1417 12.1714C12.0476 12.5596 12 12.9572 12 13.3569C12 14.3217 12.7988 16.0681 12.7988 16.0681L14.0249 19M13.6 23L19.4 23C19.9601 23 20.2401 23 20.454 22.891C20.6422 22.7951 20.7951 22.6422 20.891 22.454C21 22.2401 21 21.9601 21 21.4L21 20.6C21 20.0399 21 19.7599 20.891 19.546C20.7951 19.3578 20.6422 19.2049 20.454 19.109C20.2401 19 19.9601 19 19.4 19L13.6 19C13.0399 19 12.7599 19 12.546 19.109C12.3578 19.2049 12.2049 19.3578 12.109 19.546C12 19.7599 12 20.0399 12 20.6L12 21.4C12 21.9601 12 22.2401 12.109 22.454C12.2049 22.6422 12.3578 22.7951 12.546 22.891C12.7599 23 13.0399 23 13.6 23Z" stroke="black" stroke-width="1.5" stroke-linecap="round" stroke-linejoin="round"/>
</svg>
