<svg width="24" height="24" viewBox="0 0 24 24" fill="none" xmlns="http://www.w3.org/2000/svg">
<path d="M11.8176 6.0596C11.9919 5.98285 12.1802 5.94329 12.3707 5.94345C12.561 5.9435 12.7492 5.98321 12.9233 6.06005C13.0974 6.1369 13.2536 6.24918 13.3819 6.38976C13.5102 6.53033 13.6078 6.6961 13.6684 6.87648C13.7291 7.05687 13.7515 7.24793 13.7342 7.43745L13.1882 13.4465C13.1669 13.6485 13.0717 13.8355 12.9207 13.9714C12.7697 14.1073 12.5738 14.1826 12.3707 14.1826C12.1675 14.1826 11.9716 14.1073 11.8206 13.9714C11.6697 13.8355 11.5744 13.6485 11.5532 13.4465L11.0057 7.43745C10.9884 7.2478 11.0108 7.05662 11.0715 6.87613C11.1323 6.69564 11.23 6.5298 11.3585 6.3892C11.4869 6.24861 11.6433 6.13635 11.8176 6.0596Z" fill="white"/>
<path d="M13.6792 16.7472C13.6792 17.4699 13.0934 18.0557 12.3707 18.0557C11.6481 18.0557 11.0622 17.4699 11.0622 16.7472C11.0622 16.0246 11.6481 15.4387 12.3707 15.4387C13.0934 15.4387 13.6792 16.0246 13.6792 16.7472Z" fill="white"/>
</svg>
