<svg width="24" height="24" viewBox="0 0 24 24" fill="none" xmlns="http://www.w3.org/2000/svg">
<path fill-rule="evenodd" clip-rule="evenodd" d="M12.6036 5.29289C12.9941 5.68342 12.9941 6.31658 12.6036 6.70711L7.31066 12L12.6036 17.2929C12.9941 17.6834 12.9941 18.3166 12.6036 18.7071C12.213 19.0976 11.5799 19.0976 11.1893 18.7071L5.36612 12.8839C4.87796 12.3957 4.87796 11.6043 5.36612 11.1161L11.1893 5.29289C11.5799 4.90237 12.213 4.90237 12.6036 5.29289Z" fill="black"/>
<path fill-rule="evenodd" clip-rule="evenodd" d="M18.6036 5.29289C18.9941 5.68342 18.9941 6.31658 18.6036 6.70711L13.3107 12L18.6036 17.2929C18.9941 17.6834 18.9941 18.3166 18.6036 18.7071C18.213 19.0976 17.5799 19.0976 17.1893 18.7071L11.3661 12.8839C10.878 12.3957 10.878 11.6043 11.3661 11.1161L17.1893 5.29289C17.5799 4.90237 18.213 4.90237 18.6036 5.29289Z" fill="black"/>
</svg>
