<svg width="24" height="24" viewBox="0 0 24 24" fill="none" xmlns="http://www.w3.org/2000/svg">
<path d="M21.9854 10.7531L21.2917 3.42656C21.2565 3.04687 20.9542 2.74687 20.5745 2.70937L13.2479 2.01562H13.2386C13.1636 2.01562 13.105 2.03906 13.0604 2.08359L2.08465 13.0594C2.06293 13.0811 2.04569 13.1068 2.03393 13.1352C2.02217 13.1635 2.01611 13.1939 2.01611 13.2246C2.01611 13.2553 2.02217 13.2857 2.03393 13.3141C2.04569 13.3424 2.06293 13.3682 2.08465 13.3898L10.6112 21.9164C10.6557 21.9609 10.7143 21.9844 10.7776 21.9844C10.8409 21.9844 10.8995 21.9609 10.944 21.9164L21.9198 10.9406C21.9667 10.8914 21.9901 10.8234 21.9854 10.7531ZM10.7753 19.5633L4.43778 13.2258L13.8057 3.85781L19.5948 4.40625L20.1432 10.1953L10.7753 19.5633ZM15.9386 6C14.8018 6 13.8761 6.92578 13.8761 8.0625C13.8761 9.19922 14.8018 10.125 15.9386 10.125C17.0753 10.125 18.0011 9.19922 18.0011 8.0625C18.0011 6.92578 17.0753 6 15.9386 6ZM15.9386 8.8125C15.5237 8.8125 15.1886 8.47734 15.1886 8.0625C15.1886 7.64766 15.5237 7.3125 15.9386 7.3125C16.3534 7.3125 16.6886 7.64766 16.6886 8.0625C16.6886 8.47734 16.3534 8.8125 15.9386 8.8125Z" fill="black"/>
</svg>
