<svg width="24" height="24" viewBox="0 0 24 24" fill="none" xmlns="http://www.w3.org/2000/svg">
<path d="M16.3183 18.6449C15.9231 18.6449 15.5552 18.6312 15.2963 18.604V17.037C15.5552 17.0506 15.855 17.0642 16.1139 17.0642C16.509 17.0642 16.836 17.0234 17.0813 16.3829L17.2039 16.0695L14.5469 8.46623H16.6589L18.2123 13.9166H18.294L19.861 8.46623H22.0003L19.1116 16.6827C18.6892 17.8682 17.8852 18.6449 16.3183 18.6449Z" fill="black"/>
<path d="M7.68848 13.794C7.68848 12.1453 9.02382 11.6003 10.4409 11.5185C10.9723 11.4844 11.967 11.4367 12.2804 11.4231V10.8236C12.2668 10.2104 11.8444 9.8425 11.095 9.8425C10.4137 9.8425 9.97765 10.1559 9.86864 10.6601H7.94737C8.07 9.37922 9.18734 8.3709 11.1495 8.3709C12.7573 8.3709 14.2835 9.09307 14.2835 10.8781V15.8652H12.3758V14.8432H12.3213C11.9534 15.5245 11.2585 16.0015 10.1548 16.0015C8.73768 16.0015 7.68848 15.2657 7.68848 13.794ZM9.62337 13.7395C9.62337 14.3118 10.0867 14.6116 10.7271 14.6116C11.64 14.6116 12.2941 13.9984 12.2804 13.2218V12.6767C11.9739 12.6903 11.1154 12.738 10.768 12.7721C10.073 12.8402 9.62337 13.1672 9.62337 13.7395Z" fill="black"/>
<path d="M0 15.8652V6H3.86978C6.11808 6 7.39892 7.37623 7.39892 9.32474C7.39892 11.3005 6.09082 12.6495 3.81528 12.6495H2.0439V15.8652H0ZM2.0439 11.0007H3.48826C4.70097 11.0007 5.28689 10.3194 5.28689 9.32474C5.28689 8.34367 4.70097 7.676 3.48826 7.676H2.0439V11.0007Z" fill="black"/>
</svg>
