<svg width="24" height="24" viewBox="0 0 24 24" fill="none" xmlns="http://www.w3.org/2000/svg">
<path d="M16.537 2.92734C16.5083 2.91289 16.4764 2.90604 16.4443 2.90747C16.4122 2.90889 16.381 2.91854 16.3537 2.93548C16.3264 2.95242 16.3039 2.97608 16.2884 3.00421C16.2729 3.03233 16.2649 3.06397 16.2651 3.09609V4.60078C16.2651 4.72969 16.3331 4.84922 16.4409 4.91953C16.9694 5.2522 17.4585 5.64376 17.8987 6.08672C18.6651 6.85547 19.2674 7.74844 19.687 8.74219C20.1208 9.77093 20.3432 10.8765 20.3409 11.993C20.3409 13.1203 20.1206 14.2148 19.687 15.2438C19.2679 16.2361 18.6606 17.1378 17.8987 17.8992C17.1393 18.6631 16.2381 19.2713 15.2456 19.6898C14.219 20.1258 13.1245 20.3461 11.9995 20.3461C10.8745 20.3461 9.77994 20.1258 8.75338 19.6898C7.7609 19.2713 6.85966 18.6631 6.10026 17.8992C5.33831 17.1378 4.73103 16.2361 4.31198 15.2438C3.87811 14.215 3.65572 13.1095 3.65807 11.993C3.65807 10.8656 3.87838 9.77109 4.31198 8.74219C4.73151 7.74844 5.33385 6.85547 6.10026 6.08672C6.54557 5.64141 7.03307 5.25234 7.55807 4.91953C7.66823 4.85156 7.73385 4.72969 7.73385 4.60078V3.09375C7.73385 2.95312 7.58619 2.86406 7.46198 2.925C4.18307 4.575 1.92135 7.95234 1.87448 11.8664C1.80885 17.4633 6.3862 22.1133 11.9807 22.125C17.5823 22.1367 22.1245 17.5945 22.1245 11.9906C22.1245 8.025 19.851 4.59141 16.537 2.92734ZM11.2495 13.125H12.7495C12.8526 13.125 12.937 13.0406 12.937 12.9375V2.0625C12.937 1.95937 12.8526 1.875 12.7495 1.875H11.2495C11.1464 1.875 11.062 1.95937 11.062 2.0625V12.9375C11.062 13.0406 11.1464 13.125 11.2495 13.125Z" fill="black"/>
</svg>
