<svg width="24" height="24" viewBox="0 0 24 24" fill="none" xmlns="http://www.w3.org/2000/svg">
<path d="M13 16.7324C13.5978 16.3866 14 15.7403 14 15C14 13.8954 13.1046 13 12 13C10.8954 13 10 13.8954 10 15C10 15.7403 10.4022 16.3866 11 16.7324V19H13V16.7324Z" fill="black"/>
<path fill-rule="evenodd" clip-rule="evenodd" d="M5 8V3C5 1.34315 6.34315 0 8 0H16C17.6569 0 19 1.34315 19 3V8H22C22.5523 8 23 8.44771 23 9V23C23 23.5523 22.5523 24 22 24H2C1.44772 24 1 23.5523 1 23V9C1 8.44771 1.44772 8 2 8H5ZM8 2H16C16.5523 2 17 2.44772 17 3V8H7V3C7 2.44772 7.44772 2 8 2ZM3 10V22H21V10H3Z" fill="black"/>
</svg>
