<svg width="24" height="24" viewBox="0 0 24 24" fill="none" xmlns="http://www.w3.org/2000/svg">
<path d="M21.2836 8.27466L15.3328 7.40981L12.6726 2.01684C12.6 1.86919 12.4805 1.74966 12.3328 1.677C11.9625 1.49419 11.5125 1.64653 11.3273 2.01684L8.66717 7.40981L2.71639 8.27466C2.55233 8.29809 2.40233 8.37544 2.28748 8.49263C2.14864 8.63533 2.07214 8.82731 2.07477 9.0264C2.07741 9.22548 2.15897 9.41537 2.30155 9.55434L6.60701 13.752L5.58983 19.6793C5.56597 19.8172 5.58123 19.959 5.63387 20.0887C5.68651 20.2183 5.77442 20.3307 5.88764 20.4129C6.00086 20.4951 6.13486 20.544 6.27444 20.5539C6.41401 20.5639 6.55358 20.5345 6.67733 20.4692L12 17.6707L17.3226 20.4692C17.468 20.5465 17.6367 20.5723 17.7984 20.5442C18.2062 20.4739 18.4805 20.0872 18.4101 19.6793L17.393 13.752L21.6984 9.55434C21.8156 9.4395 21.893 9.2895 21.9164 9.12544C21.9797 8.71528 21.6937 8.33559 21.2836 8.27466ZM15.5812 13.1614L16.4273 18.0903L12 15.7653L7.57264 18.0926L8.41873 13.1637L4.83748 9.67153L9.78748 8.952L12 4.46841L14.2125 8.952L19.1625 9.67153L15.5812 13.1614Z" fill="black"/>
</svg>
