<svg width="24" height="24" viewBox="0 0 24 24" fill="none" xmlns="http://www.w3.org/2000/svg">
<path fill-rule="evenodd" clip-rule="evenodd" d="M12 6.6578C11.3732 6.6578 10.7827 6.36398 10.4047 5.86404C9.52047 4.69461 8.16571 4 6.7 4C4.15149 4 2 6.13455 2 8.84798C2 10.1131 2.46824 11.3021 3.31546 12.2102L11.9999 21.133L20.5166 12.3809C20.5269 12.3704 20.5372 12.36 20.5477 12.3497C21.4743 11.4384 22 10.1987 22 8.84798C22 6.13455 19.8485 4 17.3 4C15.8343 4 14.4795 4.69461 13.5953 5.86404C13.2173 6.36398 12.6268 6.6578 12 6.6578ZM1.86875 13.5913C0.6625 12.3069 0 10.622 0 8.84798C0 5.0711 3.00625 2 6.7 2C8.11775 2 9.45667 2.45249 10.5619 3.24984C11.1034 3.64057 11.5889 4.11411 12 4.6578C12.4111 4.11411 12.8966 3.64057 13.4381 3.24984C14.5433 2.45249 15.8822 2 17.3 2C20.9937 2 24 5.0711 24 8.84798C24 10.7301 23.2625 12.485 21.95 13.7757L12 24L1.86875 13.5913Z" fill="black"/>
</svg>
