<svg width="24" height="24" viewBox="0 0 24 24" fill="none" xmlns="http://www.w3.org/2000/svg">
<path fill-rule="evenodd" clip-rule="evenodd" d="M1.5 12C1.5 6.20156 6.20156 1.5 12 1.5C17.7984 1.5 22.5 6.20156 22.5 12C22.5 17.7984 17.7984 22.5 12 22.5C6.20156 22.5 1.5 17.7984 1.5 12ZM3.28125 12C3.28125 16.8141 7.18594 20.7188 12 20.7188C16.8141 20.7188 20.7188 16.8141 20.7188 12C20.7188 7.18594 16.8141 3.28125 12 3.28125C7.18594 3.28125 3.28125 7.18594 3.28125 12ZM11.2045 8.6705C10.9935 8.45952 10.875 8.17337 10.875 7.875C10.875 7.57663 10.9935 7.29048 11.2045 7.0795C11.4155 6.86853 11.7016 6.75 12 6.75C12.2984 6.75 12.5845 6.86853 12.7955 7.0795C13.0065 7.29048 13.125 7.57663 13.125 7.875C13.125 8.17337 13.0065 8.45952 12.7955 8.6705C12.5845 8.88147 12.2984 9 12 9C11.7016 9 11.4155 8.88147 11.2045 8.6705ZM11.25 10.6875C11.25 10.5844 11.3344 10.5 11.4375 10.5H12.5625C12.6656 10.5 12.75 10.5844 12.75 10.6875V17.0625C12.75 17.1656 12.6656 17.25 12.5625 17.25H11.4375C11.3344 17.25 11.25 17.1656 11.25 17.0625V10.6875Z" fill="black"/>
</svg>
