<svg width="24" height="24" viewBox="0 0 24 24" fill="none" xmlns="http://www.w3.org/2000/svg">
<path d="M21.3068 4.90547L19.9849 5.93906C18.1826 3.63516 15.3795 2.15625 12.2318 2.15625C6.79664 2.15625 2.39742 6.55078 2.39039 11.9883C2.38336 17.4305 6.79195 21.8438 12.2318 21.8438C16.481 21.8438 20.1021 19.1484 21.4802 15.3727C21.5154 15.2742 21.4638 15.1641 21.3654 15.1312L20.0365 14.6742C19.9902 14.6583 19.9394 14.6612 19.8952 14.6822C19.851 14.7033 19.8167 14.7408 19.7998 14.7867C19.7576 14.9039 19.7107 15.0211 19.6615 15.1359C19.256 16.0969 18.6748 16.9594 17.9341 17.7C17.1995 18.436 16.3297 19.0233 15.3724 19.4297C14.381 19.8492 13.324 20.0625 12.2365 20.0625C11.1466 20.0625 10.092 19.8492 9.10055 19.4297C8.14236 19.0251 7.27223 18.4375 6.53883 17.7C5.80219 16.9654 5.21551 16.0946 4.81148 15.1359C4.39195 14.1422 4.17867 13.0875 4.17867 11.9977C4.17867 10.9078 4.39195 9.85313 4.81148 8.85938C5.21695 7.89844 5.7982 7.03594 6.53883 6.29531C7.27945 5.55469 8.14195 4.97344 9.10055 4.56563C10.092 4.14609 11.149 3.93281 12.2365 3.93281C13.3263 3.93281 14.381 4.14609 15.3724 4.56563C16.3306 4.97026 17.2007 5.55778 17.9341 6.29531C18.1662 6.52734 18.3841 6.77344 18.5857 7.03125L17.1748 8.13281C17.1468 8.15441 17.1256 8.18344 17.1134 8.21658C17.1013 8.24972 17.0988 8.28562 17.1061 8.32014C17.1134 8.35466 17.1304 8.38641 17.155 8.41173C17.1796 8.43705 17.2108 8.45492 17.2451 8.46328L21.3607 9.47109C21.4779 9.49922 21.5927 9.41016 21.5927 9.29062L21.6115 5.05078C21.6091 4.89609 21.4287 4.80938 21.3068 4.90547Z" fill="black"/>
</svg>
