<svg width="24" height="24" viewBox="0 0 24 24" fill="none" xmlns="http://www.w3.org/2000/svg">
<path d="M18.2639 4.60859C16.0561 2.40078 12.4608 2.40078 10.2553 4.60859L4.13811 10.7211C4.09826 10.7609 4.07717 10.8148 4.07717 10.8711C4.07717 10.9273 4.09826 10.9812 4.13811 11.0211L5.00295 11.8859C5.04248 11.9253 5.096 11.9474 5.15178 11.9474C5.20756 11.9474 5.26108 11.9253 5.30061 11.8859L11.4178 5.77343C12.1772 5.01406 13.1873 4.59687 14.2608 4.59687C15.3342 4.59687 16.3444 5.01406 17.1014 5.77343C17.8608 6.53281 18.278 7.54296 18.278 8.61406C18.278 9.68749 17.8608 10.6953 17.1014 11.4547L10.867 17.6867L9.85686 18.6969C8.91233 19.6414 7.37717 19.6414 6.43264 18.6969C5.97561 18.2398 5.72483 17.6328 5.72483 16.9859C5.72483 16.3391 5.97561 15.732 6.43264 15.275L12.6178 9.09218C12.7748 8.93749 12.9811 8.85077 13.2014 8.85077H13.2037C13.424 8.85077 13.628 8.93749 13.7826 9.09218C13.9397 9.24921 14.024 9.45546 14.024 9.67577C14.024 9.89374 13.9373 10.1 13.7826 10.2547L8.72717 15.3055C8.68733 15.3453 8.66623 15.3992 8.66623 15.4555C8.66623 15.5117 8.68733 15.5656 8.72717 15.6055L9.59201 16.4703C9.63155 16.5097 9.68506 16.5318 9.74084 16.5318C9.79663 16.5318 9.85014 16.5097 9.88967 16.4703L14.9428 11.4172C15.4092 10.9508 15.6647 10.332 15.6647 9.67343C15.6647 9.01484 15.4069 8.39374 14.9428 7.92968C13.9795 6.9664 12.4139 6.96874 11.4506 7.92968L10.8506 8.53202L5.2678 14.1125C4.88888 14.4892 4.58853 14.9374 4.38414 15.431C4.17976 15.9247 4.07542 16.454 4.07717 16.9883C4.07717 18.0734 4.50139 19.093 5.2678 19.8594C6.06233 20.6516 7.10295 21.0476 8.14358 21.0476C9.1842 21.0476 10.2248 20.6516 11.017 19.8594L18.2639 12.6172C19.3303 11.5484 19.9209 10.1258 19.9209 8.61406C19.9233 7.09999 19.3326 5.67734 18.2639 4.60859Z" fill="black"/>
</svg>
