<svg width="24" height="24" viewBox="0 0 24 24" fill="none" xmlns="http://www.w3.org/2000/svg">
<path fill-rule="evenodd" clip-rule="evenodd" d="M11.3964 5.29289C11.0059 5.68342 11.0059 6.31658 11.3964 6.70711L16.6893 12L11.3964 17.2929C11.0059 17.6834 11.0059 18.3166 11.3964 18.7071C11.787 19.0976 12.4201 19.0976 12.8107 18.7071L18.6339 12.8839C19.122 12.3957 19.122 11.6043 18.6339 11.1161L12.8107 5.29289C12.4201 4.90237 11.787 4.90237 11.3964 5.29289Z" fill="black"/>
<path fill-rule="evenodd" clip-rule="evenodd" d="M5.39645 5.29289C5.00592 5.68342 5.00592 6.31658 5.39645 6.70711L10.6893 12L5.39645 17.2929C5.00592 17.6834 5.00592 18.3166 5.39645 18.7071C5.78697 19.0976 6.42014 19.0976 6.81066 18.7071L12.6339 12.8839C13.122 12.3957 13.122 11.6043 12.6339 11.1161L6.81066 5.29289C6.42014 4.90237 5.78697 4.90237 5.39645 5.29289Z" fill="black"/>
</svg>
