<svg width="24" height="24" viewBox="0 0 24 24" fill="none" xmlns="http://www.w3.org/2000/svg">
<g clip-path="url(#clip0_6_8)">
<path fill-rule="evenodd" clip-rule="evenodd" d="M16.5425 12.3261C18.0465 11.0422 19 9.13244 19 7C19 3.13401 15.866 0 12 0C8.13401 0 5 3.13401 5 7C5 9.13244 5.95353 11.0422 7.45747 12.3261C3.166 13.4509 0 17.3557 0 22V23C0 23.3375 0.0167194 23.6711 0.0493752 24H2.06189C2.02104 23.6724 2 23.3387 2 23V22C2 17.5817 5.58172 14 10 14H14C18.4183 14 22 17.5817 22 22V23C22 23.3387 21.979 23.6724 21.9381 24H23.9506C23.9833 23.6711 24 23.3375 24 23V22C24 17.3557 20.834 13.4509 16.5425 12.3261ZM17 7C17 9.76142 14.7614 12 12 12C9.23858 12 7 9.76142 7 7C7 4.23858 9.23858 2 12 2C14.7614 2 17 4.23858 17 7Z" fill="black"/>
</g>
<defs>
<clipPath id="clip0_6_8">
<rect width="24" height="24" fill="white"/>
</clipPath>
</defs>
</svg>
